<svg width="21" height="26" viewBox="0 0 21 26" fill="none" xmlns="http://www.w3.org/2000/svg">
<path d="M20.5427 7.93591H16.5528C16.2807 7.93591 16.0994 8.14904 16.0994 8.36217V24.7303C16.0994 24.9861 16.2807 25.1566 16.5528 25.1566H20.5427C20.8148 25.1566 20.9961 24.9861 20.9961 24.7303V8.36217C20.9961 8.10641 20.8148 7.93591 20.5427 7.93591Z" fill="white"/>
<path d="M2.45015 5.54783C1.86073 5.54783 1.2713 5.3347 0.817901 4.95107L0.319157 4.26907C-0.542309 2.73455 0.63654 0.901661 2.49549 0.901661C4.26377 0.901661 5.48796 2.6493 4.71717 4.18382L8.7978 6.86922C9.2512 6.48559 9.88597 6.22984 10.5207 6.22984C11.1102 6.22984 11.6542 6.44296 12.1076 6.78397L19.4074 1.11479L16.5057 0.859036C16.2336 0.81641 16.0523 0.603283 16.0976 0.390156C16.1429 0.134404 16.3696 -0.0360976 16.5963 0.00652781L20.5409 0.390156C20.813 0.390156 21.0397 0.560658 20.9943 0.901661L20.6316 4.61007C20.5863 4.86582 20.3142 5.03632 20.1329 4.9937C19.8608 4.95107 19.6795 4.73795 19.7248 4.52482L19.9969 1.79679L12.6517 7.42335C13.1051 8.1906 13.0145 9.17099 12.4704 9.89562C11.4729 11.1744 9.4779 11.1744 8.48042 9.89562C7.98167 9.25624 7.89099 8.31848 8.25372 7.59385L4.17309 4.90845C3.71968 5.3347 3.08492 5.54783 2.45015 5.54783Z" fill="white" fill-opacity="0.95"/>
<path d="M12.5177 13.774H8.48246C8.25575 13.774 8.02905 13.9445 8.02905 14.2003V24.7288C8.02905 24.9845 8.25575 25.155 8.48246 25.155H12.5177C12.7444 25.155 12.9711 24.9845 12.9711 24.7288V14.2003C12.9711 13.9445 12.7444 13.774 12.5177 13.774Z" fill="white"/>
<path d="M0.453403 8.44653C0.226702 8.44653 0 8.65966 0 8.87279V24.7294C0 24.9852 0.226702 25.1557 0.453403 25.1557H4.48869C4.71539 25.1557 4.9421 24.9852 4.9421 24.7294V8.87279C4.9421 8.65966 4.71539 8.44653 4.48869 8.44653H0.453403Z" fill="white"/>
</svg>
