<svg width="23" height="23" viewBox="0 0 23 23" fill="none" xmlns="http://www.w3.org/2000/svg">
<path d="M23 3.00892C23 1.34711 21.6529 0 19.9911 0H3.00892C1.34711 0 0 1.34711 0 3.00892V19.991C0 21.6529 1.34711 23 3.00892 23H19.991C21.6529 23 23 21.6529 23 19.9911V3.00892ZM5.16276 18.7811C4.66442 18.9148 4.20838 18.4587 4.34205 17.9604L5.16845 14.8801L8.2429 17.9546L5.16276 18.7811ZM18.4403 7.57924L9.34122 16.6785L6.28085 13.6181L15.38 4.51901C15.8115 4.08745 16.511 4.08745 16.9426 4.51901L18.4403 6.01673C18.8717 6.44816 18.8717 7.14768 18.4403 7.57924Z" fill="white"/>
</svg>
