<svg width="24" height="22" viewBox="0 0 24 22" fill="none" xmlns="http://www.w3.org/2000/svg">
<path d="M8.16667 10.5331C7.36167 10.5331 6.70833 11.1381 6.70833 11.8835C6.70833 12.629 7.36167 13.2339 8.16667 13.2339C8.97167 13.2339 9.625 12.629 9.625 11.8835C9.625 11.1381 8.97167 10.5331 8.16667 10.5331ZM15.1667 10.5331C14.3617 10.5331 13.7083 11.1381 13.7083 11.8835C13.7083 12.629 14.3617 13.2339 15.1667 13.2339C15.9717 13.2339 16.625 12.629 16.625 11.8835C16.625 11.1381 15.9717 10.5331 15.1667 10.5331ZM11.6667 0C5.22667 0 0 4.83984 0 10.8032C0 16.7666 5.22667 21.6064 11.6667 21.6064C18.1067 21.6064 23.3333 16.7666 23.3333 10.8032C23.3333 4.83984 18.1067 0 11.6667 0ZM11.6667 19.4458C6.52167 19.4458 2.33333 15.5674 2.33333 10.8032C2.33333 10.4899 2.35667 10.1766 2.39167 9.87415C5.145 8.73981 7.32667 6.65479 8.47 4.07281C10.5817 6.83844 14.0583 8.64258 17.99 8.64258C18.9 8.64258 19.775 8.54535 20.615 8.36169C20.86 9.12872 21 9.94977 21 10.8032C21 15.5674 16.8117 19.4458 11.6667 19.4458Z" fill="white"/>
</svg>
