<svg width="23" height="28" viewBox="0 0 23 28" fill="none" xmlns="http://www.w3.org/2000/svg">
<path d="M3.48104 21.8232H22.1023C22.1593 21.8232 22.2145 21.8151 22.2676 21.8024C22.2718 21.8024 22.2753 21.8032 22.2796 21.8032C22.6771 21.8032 23 21.4806 23 21.0828V0.720449C23.0001 0.322759 22.6771 0 22.2796 0H22.1037H4.63328H3.48205C1.56442 0 0.00461181 1.56017 0.00461181 3.47726C0.00461181 3.50297 0.00967066 3.52737 0.0121704 3.55219C0.00967066 5.32311 -0.012291 21.5956 0.00967068 23.7348C0.00830179 23.7767 0.00318329 23.8175 0.00318329 23.8598C0.00318329 25.7032 1.44658 27.2123 3.26214 27.3263C3.29856 27.3319 3.33427 27.3372 3.37206 27.3372H22.2795C22.677 27.3372 22.9999 27.0146 22.9999 26.6167V23.9049C22.9999 23.5073 22.6769 23.1844 22.2795 23.1844C21.882 23.1844 21.559 23.5074 21.559 23.9049V25.8964H3.48104C2.38623 25.8964 1.49253 25.0271 1.4486 23.9432C1.44968 23.9239 1.45319 23.9056 1.45283 23.8859C1.45212 23.8542 1.45105 23.805 1.45033 23.7395C1.5133 22.6728 2.39873 21.8232 3.48104 21.8232ZM3.97229 3.47726C3.97229 3.07957 4.29505 2.75681 4.69274 2.75681C5.09043 2.75681 5.41319 3.07957 5.41319 3.47726V18.1115C5.41319 18.509 5.09043 18.832 4.69274 18.832C4.29505 18.832 3.97229 18.509 3.97229 18.1115V3.47726Z" fill="white"/>
</svg>
